<?xml version="1.0" encoding="UTF-8" standalone="no"?>
<svg version="1.1"
     width="280px"
     height="280px"
     baseProfile="full"
     xmlns="http://www.w3.org/2000/svg"
     xmlns:xlink="http://www.w3.org/1999/xlink"
     xmlns:ev="http://www.w3.org/2001/xml-events"
     viewBox="0 0 279.99999999999994 280.0000204228537"
    >
  <rect width="100%" height="100%" fill="rgb(240, 253, 216)">
  </rect>
  <defs id="SvgjsDefs1235">
    <linearGradient id="SvgjsLinearGradient1242">
      <stop id="SvgjsStop1243" stop-color="#006838" offset="0"></stop>
      <stop id="SvgjsStop1244" stop-color="#96cf24" offset="1"></stop>
    </linearGradient>
    <linearGradient id="SvgjsLinearGradient1245">
      <stop id="SvgjsStop1246" stop-color="#006838" offset="0"></stop>
      <stop id="SvgjsStop1247" stop-color="#96cf24" offset="1"></stop>
    </linearGradient>
  </defs>
  <g id="SvgjsG1236" featurekey="rootContainer"
     transform="matrix(2.676864283791307,0,0,2.676864283791307,0.00001668930053710937,0.00001668930053710937)"
     fill="url(#SvgjsLinearGradient1242)">
    <path xmlns="http://www.w3.org/2000/svg"
          d="M52.3 104.6a52.3 52.3 0 1 1 52.3-52.3 52.4 52.4 0 0 1-52.3 52.3zm0-102.3a50 50 0 1 0 50 50 50 50 0 0 0-50-50z"></path>
  </g>
  <g id="SvgjsG1237" featurekey="symbolFeature-0"
     transform="matrix(2.3645279762748035,0,0,2.3645279762748035,102.6354720237252,80.45320803558779)" fill="#2a9100">
    <g xmlns="http://www.w3.org/2000/svg" transform="translate(0,-1020.3622)">
      <path style="color:;clip-rule:nonzero;display:inline;overflow:visible;visibility:visible;opacity:1;isolation:auto;mix-blend-mode:normal;color-interpolation:sRGB;color-interpolation-filters:linearRGB;solid-color:;solid-opacity:1;fill:#2a9100;fill-opacity:1;fill-rule:nonzero;stroke:none;stroke-width:1;stroke-linecap:round;stroke-linejoin:round;stroke-miterlimit:4;stroke-dasharray:none;stroke-dashoffset:1.5;stroke-opacity:1;color-rendering:auto;image-rendering:auto;shape-rendering:auto;text-rendering:auto;enable-background:accumulate"
            d="M 16 1.5 C 14.889506 1.5 14.000004 2.3895 14 3.5 C 14.000004 4.6105 14.889506 5.5 16 5.5 C 17.110494 5.5 17.999996 4.6105 18 3.5 C 17.999996 2.3895 17.110494 1.5 16 1.5 z M 15.5 6.4492188 L 15.5 14.5 L 16.5 14.5 L 16.5 6.4492188 C 16.336565 6.4772188 16.170872 6.5019531 16 6.5019531 C 15.829128 6.5019531 15.663435 6.4772188 15.5 6.4492188 z M 9 6.5019531 C 7.889506 6.5019531 7.000004 7.3914531 7 8.5019531 C 7.000004 9.6124531 7.889506 10.501953 9 10.501953 C 10.110494 10.501953 10.999996 9.6124531 11 8.5019531 C 10.999996 7.3914531 10.110494 6.5019531 9 6.5019531 z M 23 6.5019531 C 21.889506 6.5019531 21.000004 7.3914531 21 8.5019531 C 21.000004 9.6124531 21.889506 10.501953 23 10.501953 C 24.110494 10.501953 24.999996 9.6124531 25 8.5019531 C 24.999996 7.3914531 24.110494 6.5019531 23 6.5019531 z M 22.5 11.449219 L 22.5 11.451172 L 22.5 13.509766 L 20 13.509766 L 20 14.501953 L 21 14.501953 L 21 14.490234 L 23.5 14.490234 L 23.5 11.449219 C 23.336565 11.477219 23.170872 11.501953 23 11.501953 C 22.829128 11.501953 22.663435 11.477219 22.5 11.449219 z M 8.5 11.453125 L 8.5 14.494141 L 11 14.494141 L 11 14.503906 L 12 14.503906 L 12 13.511719 L 9.5 13.511719 L 9.5 11.453125 C 9.336565 11.481125 9.170872 11.503906 9 11.503906 C 8.829128 11.503906 8.663435 11.481125 8.5 11.453125 z M 3 11.501953 C 1.889506 11.501953 1.000004 12.391453 1 13.501953 C 1.000004 14.612453 1.889506 15.501953 3 15.501953 C 4.110494 15.501953 4.999996 14.612453 5 13.501953 C 4.999996 12.391453 4.110494 11.501953 3 11.501953 z M 29 11.501953 C 27.889506 11.501953 27.000004 12.391453 27 13.501953 C 27.000004 14.612453 27.889506 15.501953 29 15.501953 C 30.110494 15.501953 30.999996 14.612453 31 13.501953 C 30.999996 12.391453 30.110494 11.501953 29 11.501953 z M 7.5625 15.376953 C 7.251852 15.376953 7.000032 15.628753 7 15.939453 L 7 23.439453 L 25 23.439453 L 25 15.939453 C 24.999969 15.628753 24.748148 15.376953 24.4375 15.376953 L 7.5625 15.376953 z M 2.5 16.449219 L 2.5 21.501953 L 6 21.501953 L 6 20.501953 L 3.5 20.501953 L 3.5 16.449219 C 3.336554 16.477219 3.170884 16.501953 3 16.501953 C 2.829116 16.501953 2.663446 16.477219 2.5 16.449219 z M 28.5 16.449219 L 28.5 20.5 L 26 20.5 L 26 21.5 L 29.5 21.5 L 29.5 16.449219 C 29.336565 16.477219 29.170872 16.5 29 16.5 C 28.829128 16.5 28.663435 16.477219 28.5 16.449219 z M 7 24.5625 L 7 25.9375 L 7 26.5 L 7.5625 26.5 L 24.4375 26.5 L 25 26.5 L 25 25.9375 L 25 24.5625 L 7 24.5625 z M 14.585938 27.5 C 14.585938 28.4329 14.585458 28.9798 14.246094 29.5 L 11.513672 29.5 A 0.50005 0.50005 0 1 0 11.513672 30.5 L 13.175781 30.5 L 18.818359 30.5 L 20.480469 30.5 A 0.50005 0.50005 0 1 0 20.480469 29.5 L 17.748047 29.5 C 17.40868 28.9798 17.40625 28.4329 17.40625 27.5 L 14.585938 27.5 z "
            transform="translate(0,1020.3622)"></path>
    </g>
  </g>
  <g id="SvgjsG1238" featurekey="nameFeature-0"
     transform="matrix(0.8407034066472988,0,0,0.8407034066472988,38.99115607237469,162.9115607237469)"
     fill="url(#SvgjsLinearGradient1245)">
    <path d="M1.2 40 l0 -4.48 l0.84 -0.56 l0 -17.92 l-0.84 -0.56 l0 -4.48 l14.56 0 l0 5.88 l-4.48 0 l-0.56 -0.84 l-3.64 0 l0 6.44 l6.44 0 l0 5.04 l-6.44 0 l0 6.44 l3.64 0 l0.56 -0.84 l4.48 0 l0 5.88 l-14.56 0 z M18.738 40 l0 -4.48 l0.84 -0.56 l0 -17.92 l-0.84 -0.56 l0 -4.48 l6.2 0 l5.84 14.96 l0 -9.92 l-0.84 -0.56 l0 -4.48 l6.72 0 l0 4.48 l-0.84 0.56 l0 22.96 l-5.36 0 l-5.84 -14.96 l0 9.92 l0.84 0.56 l0 4.48 l-6.72 0 z M39.636 40 l0 -4.48 l0.84 -0.56 l0 -17.92 l-0.84 -0.56 l0 -4.48 l13.36 0 l3.72 3.72 l0 20.56 l-3.72 3.72 l-13.36 0 z M45.516 34.96 l5.4 0 l0.76 -0.76 l0 -16.4 l-0.76 -0.76 l-5.4 0 l0 17.92 z M59.694 40 l0 -4.48 l0.84 -0.56 l0 -17.92 l-0.84 -0.56 l0 -4.48 l12.8 0 l3.72 3.72 l0 10.76 l-3.72 3.72 l-6.92 0 l0 4.76 l0.84 0.56 l0 4.48 l-6.72 0 z M65.574 25.16 l4.84 0 l0.76 -0.76 l0 -6.6 l-0.76 -0.76 l-4.84 0 l0 8.12 z M82.912 40 l-3.72 -3.72 l0 -20.56 l3.72 -3.72 l9.08 0 l3.72 3.72 l0 20.56 l-3.72 3.72 l-9.08 0 z M84.992 34.96 l4.92 0 l0.76 -0.76 l0 -16.4 l-0.76 -0.76 l-4.92 0 l-0.76 0.76 l0 16.4 z M98.69000000000001 40 l0 -4.48 l0.84 -0.56 l0 -17.92 l-0.84 -0.56 l0 -4.48 l6.72 0 l0 4.48 l-0.84 0.56 l0 17.92 l0.84 0.56 l0 4.48 l-6.72 0 z M108.38800000000002 40 l0 -4.48 l0.84 -0.56 l0 -17.92 l-0.84 -0.56 l0 -4.48 l6.2 0 l5.84 14.96 l0 -9.92 l-0.84 -0.56 l0 -4.48 l6.72 0 l0 4.48 l-0.84 0.56 l0 22.96 l-5.36 0 l-5.84 -14.96 l0 9.92 l0.84 0.56 l0 4.48 l-6.72 0 z M134.32600000000002 40 l0 -4.48 l0.84 -0.56 l0 -17.92 l-0.84 0 l-0.56 0.84 l-4.48 0 l0 -5.88 l16.8 0 l0 5.88 l-4.48 0 l-0.56 -0.84 l-0.84 0 l0 17.92 l0.84 0.56 l0 4.48 l-6.72 0 z M149.064 40 l0 -4.48 l15.68 0 l0 4.48 l-15.68 0 z M167.72199999999998 40 l0 -4.48 l0.84 -0.56 l0 -17.92 l-0.84 -0.56 l0 -4.48 l14.56 0 l0 5.88 l-4.48 0 l-0.56 -0.84 l-3.64 0 l0 6.44 l6.44 0 l0 5.04 l-6.44 0 l0 6.44 l0.84 0.56 l0 4.48 l-6.72 0 z M185.26 40 l0 -4.48 l0.84 -0.56 l0 -17.92 l-0.84 -0.56 l0 -4.48 l6.72 0 l0 4.48 l-0.84 0.56 l0 17.92 l2.8 0 l0.56 -0.84 l4.48 0 l0 5.88 l-13.72 0 z M206.518 40 l-3.72 -3.72 l0 -19.24 l-0.84 -0.56 l0 -4.48 l6.72 0 l0 4.48 l-0.84 0.56 l0 17.16 l0.76 0.76 l4.64 0 l0.76 -0.76 l0 -17.16 l-0.84 -0.56 l0 -4.48 l6.72 0 l0 4.48 l-0.84 0.56 l0 19.24 l-3.72 3.72 l-8.8 0 z M222.856 40 l0 -4.48 l1.16 -0.76 l3.16 -8.76 l-3.16 -8.76 l-1.16 -0.76 l0 -4.48 l4.6 0 l3.52 9.68 l3.52 -9.68 l4.6 0 l0 4.48 l-1.16 0.76 l-3.16 8.76 l3.16 8.76 l1.16 0.76 l0 4.48 l-4.6 0 l-3.52 -9.68 l-3.52 9.68 l-4.6 0 z"></path>
  </g>

</svg>
